<svg xmlns="http://www.w3.org/2000/svg" viewBox="0 0 200 200">
  <radialGradient id="a5" cx=".66" fx=".66" cy=".3125" fy=".3125" gradientTransform="scale(1.5)">
    <stop offset="0" stop-color="#18020A"/>
    <stop offset=".3" stop-color="#18020A" stop-opacity=".9"/>
    <stop offset=".6" stop-color="#18020A" stop-opacity=".6"/>
    <stop offset=".8" stop-color="#18020A" stop-opacity=".3"/>
    <stop offset="1" stop-color="#18020A" stop-opacity="0"/>
  </radialGradient>

  <circle transform-origin="center" fill="none" stroke="url(#a5)" stroke-width="18" stroke-linecap="round"
          stroke-dasharray="200 1000" stroke-dashoffset="0" cx="100" cy="100" r="70">
    <animateTransform type="rotate" attributeName="transform" calcMode="spline" dur="2s" values="360;0" keyTimes="0;1"
                      keySplines="0 0 1 1" repeatCount="indefinite"/>
  </circle>

  <circle transform-origin="center" fill="none" opacity=".2" stroke="#18020A" stroke-width="18" stroke-linecap="round"
          cx="100" cy="100" r="70"/>

  <!-- M centrata nel cerchio -->
  <g transform="translate(77, 80)">
    <path d="M35.1647 42.2925C37.2204 41.7411 38.3857 40.9642 38.7155 39.9605C39.0206 38.9593 39.0453 36.3522 38.7664 32.1144L37.3963 10.8327L39.1718 6.87118H44.8279C43.3066 7.54772 42.2403 8.28031 41.6563 9.02594C41.0723 9.77157 40.7699 11.0569 40.796 12.8623C40.796 13.3133 40.8195 14.2662 40.8977 15.6949L41.9861 31.4131C42.2925 35.926 42.647 38.713 43.0785 39.7858C43.51 40.8586 44.5997 41.6903 46.3999 42.2925H35.1647ZM24.3087 42.7931H23.9046L8.68436 10.7805C8.15121 9.57865 7.46554 8.69484 6.62997 8.17342C5.79439 7.652 4.57557 7.19446 2.98003 6.86987H10.6123L25.8299 39.6359L24.3087 42.7931ZM0.999939 42.2925C1.67184 42.0569 2.3254 41.772 2.95526 41.44C3.35936 41.2145 3.84168 40.6891 4.39959 39.8862C5.39029 38.5331 6.12549 35.1934 6.55566 29.9088C6.68602 36.3757 7.29217 40.1377 8.4067 41.1636C8.88902 41.6416 9.72633 42.0179 10.9186 42.2925H0.999939Z" fill="#F8F9FB"/>
  </g>
</svg>
